<svg t="1713930448585" class="icon" viewBox="0 0 1024 1024" version="1.1" xmlns="http://www.w3.org/2000/svg" p-id="19138" width="200" height="200"><path d="M912.204 738.258c-23.306 14.255-55.173 25.184-95.126 33.262s-83.711 12.355-130.798 12.355-90.845-4.277-130.798-12.355-71.82-19.482-95.125-33.262c-23.306-13.78-35.197-29.461-35.197-45.617v-60.822c27.111 19.957 63.734 35.163 110.346 45.142 46.611 9.978 97.028 15.205 150.774 15.205 53.746 0 103.687-5.227 150.774-15.205 46.612-10.454 83.711-25.185 110.346-45.142v60.822c0 16.156-11.891 31.362-35.196 45.617z m0-137.325c-23.306 14.255-55.173 25.184-95.126 33.262s-83.711 12.354-130.798 12.354-90.845-4.276-130.798-12.354-71.82-19.482-95.125-33.262c-23.306-14.255-35.197-29.461-35.197-45.617v-60.822c27.111 19.957 63.734 35.163 110.346 45.141 46.611 10.454 97.028 15.206 150.774 15.206 53.746 0 103.687-5.227 150.774-15.206 46.612-9.978 83.711-25.184 110.346-45.141v60.822c0 16.156-11.891 31.362-35.196 45.617z m0-136.85c-23.306 13.78-55.173 25.184-95.126 33.262s-83.711 12.354-130.798 12.354-90.845-4.276-130.798-12.354-71.82-19.482-95.125-33.262c-23.306-14.256-35.197-29.461-35.197-45.617v-45.617c0-16.631 11.891-31.836 35.197-45.616 23.305-14.256 55.172-25.185 95.125-33.263s83.711-12.354 130.798-12.354 90.845 4.276 130.798 12.354 71.82 19.482 95.126 33.263c23.305 14.255 35.196 29.46 35.196 45.616v45.617c0 16.156-11.891 31.361-35.196 45.617zM377.122 360.97c-53.271-0.475-102.736-4.752-147.921-13.78-46.611-9.504-83.711-21.858-110.821-38.014-27.111-16.156-40.904-33.262-40.904-51.794v-51.794c0-18.532 13.793-36.113 40.904-51.794 27.11-16.156 64.21-28.51 110.821-38.014 46.612-9.503 97.504-13.78 152.677-13.78 55.173 0 106.065 4.752 152.677 13.78 46.611 9.504 83.71 21.858 110.821 38.014 27.111 16.156 40.904 33.262 40.904 51.794v20.432l-98.931 8.554c-77.527-0.951-214.032 46.567-210.227 126.396z m-1.427 51.794v103.588c-52.795-0.475-101.785-4.752-146.494-13.78-46.611-9.504-83.711-21.858-110.821-38.014-27.111-16.156-40.904-33.262-40.904-51.794v-68.9c31.391 22.808 74.198 39.914 128.895 51.318 52.319 11.405 108.919 17.107 169.324 17.582z m0 155.857v103.588c-52.795-0.475-101.785-4.752-146.494-13.78-46.611-9.504-83.711-21.858-110.821-38.014-27.111-16.156-40.904-33.262-40.904-51.794v-68.9c31.391 22.808 74.198 39.914 128.895 51.318 52.319 11.405 108.919 17.107 169.324 17.582z m0 155.857v97.411c0 2.376 0.475 4.276 0.475 6.652-52.794-0.475-102.26-4.752-147.445-13.78-46.611-9.503-83.71-21.858-110.821-38.014C90.794 760.591 77 743.485 77 724.953v-68.9c31.391 22.808 74.198 39.915 128.895 51.319 52.795 10.929 109.395 16.631 169.8 17.106zM686.28 829.491c53.746 0 103.687-5.226 150.774-15.205 46.612-10.454 83.711-25.184 110.346-45.142v60.823c0 16.631-11.891 31.836-35.196 45.616-23.306 14.256-55.173 25.185-95.126 33.263-39.953 8.077-83.711 12.354-130.798 12.354s-90.845-4.277-130.798-12.354c-39.953-8.078-71.82-19.483-95.125-33.263-23.306-14.255-35.197-29.46-35.197-45.616v-61.298c27.111 19.957 63.734 35.163 110.346 45.142 46.611 10.454 97.028 15.68 150.774 15.68z" p-id="19139" fill="#2FC774"></path></svg>