<?xml version="1.0" standalone="no"?><!DOCTYPE svg PUBLIC "-//W3C//DTD SVG 1.1//EN" "http://www.w3.org/Graphics/SVG/1.1/DTD/svg11.dtd"><svg t="1670224751548" class="icon" viewBox="0 0 1024 1024" version="1.1" xmlns="http://www.w3.org/2000/svg" p-id="8896" xmlns:xlink="http://www.w3.org/1999/xlink" width="128" height="128"><path d="M605.5 419v188h-50.7V419h50.7zM682 419v188h-50.7V419H682z" fill="#00205B" p-id="8897"></path><path d="M158.6 285l155.3 89.7C357.4 312 429.9 271 512 271s154.6 41 198.1 103.7L865.4 285C790.7 168.9 660.3 92 512 92c-148.3 0-278.7 76.9-353.4 193zM492 931.5C269.3 921.1 92 737.3 92 512c0-69.3 16.8-134.7 46.6-192.4l155.3 89.7c-14.7 31.2-22.9 66-22.9 102.7 0 126.4 97.3 230 221 240.2v179.3zM885.5 319.6c29.8 57.6 46.5 123 46.5 192.4 0 225.3-177.3 409.1-400 419.5V752.2C655.7 742 753 638.4 753 512c0-36.7-8.2-71.5-22.9-102.6l155.4-89.8z" fill="#299192" p-id="8898"></path><path d="M342 607h55.1l10.9-36h62l10.9 36H536l-62.1-188h-69.8L342 607z m116.4-74.2L470 571h20.4v-38.2h-32z m0 0h-38.9l18.7-62.1h1.5l18.7 62.1z" fill="#00205B" p-id="8899"></path><path d="M490.4 571v-38.2h-32L470 571h20.4z" fill="#00205B" p-id="8900"></path></svg>