<?xml version="1.0" standalone="no"?><!DOCTYPE svg PUBLIC "-//W3C//DTD SVG 1.1//EN" "http://www.w3.org/Graphics/SVG/1.1/DTD/svg11.dtd"><svg t="1670224720349" class="icon" viewBox="0 0 1024 1024" version="1.1" xmlns="http://www.w3.org/2000/svg" p-id="8589" xmlns:xlink="http://www.w3.org/1999/xlink" width="128" height="128"><path d="M319.8 340v214.4L225 959.7l534-0.5-94.9-404.7V340H319.8z" fill="#00205B" p-id="8590"></path><path d="M571.9 282.3c-56.2 57.9-132.7 13.3-147.2 6.3 76.9-41.4 110.9-134.2 175.6-149.2-41.1-2-67.3 31.9-110.8 67.7-21.9 18-47.8 38.1-82.8 51.3-12.5-30.2-0.2-89.9 41.6-120.4 83.9-61.3 182.7-47.1 252.8-29.5-63.6 30-73 115.9-129.2 173.8zM820.8 187.5c-43.9 30.3-87.8-8.5-96.3-14.8 55.2-17 89.2-72.8 133.1-74.2-26.4-6.6-47.8 12-80.6 29.7-16.5 8.9-35.9 18.6-60.3 22.6-4.2-21.2 11.5-58.4 42.5-72.8 62.3-29 124.6-7.1 167.8 13.4-45.1 11.3-62.3 65.8-106.2 96.1z" fill="#299192" p-id="8591"></path><path d="M492 691m-80 0a80 80 0 1 0 160 0 80 80 0 1 0-160 0Z" fill="#FFFFFF" p-id="8592"></path><path d="M517 591l-25-46-25 46h0.2c7.9-2 16.2-3 24.8-3s16.8 1 24.8 3h0.2z m46.4 25.7c-11.9-11.4-26.5-20-42.8-24.7l-0.2-0.1 44.7-27.3-1.3 52.3-0.4-0.2z m27.6 45.8c-4.7-16.3-13.3-30.9-24.7-42.8l-0.2-0.3 52.3-1.3-27.3 44.7-0.1-0.3z m1 53.3c2-7.9 3-16.2 3-24.8s-1-16.8-3-24.8v-0.2l46 25-46 25v-0.2z m-25.7 46.6c11.4-11.9 20-26.5 24.7-42.8l0.1-0.2 27.3 44.7-52.3-1.3 0.2-0.4zM520.5 790c16.3-4.7 30.9-13.3 42.8-24.7l0.3-0.2 1.3 52.3-44.7-27.3 0.3-0.1z m-53.3 1c7.9 2 16.2 3 24.8 3s16.8-1 24.8-3h0.2l-25 46-25-46h0.2z m-46.6-25.7c11.9 11.4 26.5 20 42.8 24.7l0.2 0.1-44.6 27.3 1.4-52.3 0.2 0.2zM393 719.5c4.7 16.3 13.3 30.9 24.7 42.8l0.2 0.3-52.3 1.3 27.3-44.7 0.1 0.3z m-1-53.3c-2 7.9-3 16.2-3 24.8s1 16.8 3 24.8v0.2l-46-25 46-25v0.2z m25.7-46.6c-11.4 11.9-20 26.5-24.7 42.8l-0.1 0.2-27.3-44.6 52.3 1.3-0.2 0.3z m2.9-2.9l-0.3 0.2-1.3-52.3 44.6 27.3-0.2 0.1c-16.2 4.7-30.9 13.3-42.8 24.7z" fill="#FFFFFF" p-id="8593"></path><path d="M449 707.1h36.5l-7.6 47.9 57.1-80.1h-36.5l7.6-47.9-57.1 80.1z" fill="#00205B" p-id="8594"></path></svg>