<svg width="40" height="40" viewBox="0 0 40 40" fill="none" xmlns="http://www.w3.org/2000/svg">
<path d="M2 38.0098H34" stroke="#00205B" stroke-width="1.5" stroke-linecap="round"/>
<path d="M37 38.0098H38" stroke="#00205B" stroke-width="1.5" stroke-linecap="round"/>
<path d="M18 5.50977C14.7136 5.50977 11.6741 6.56661 9.2028 8.35898M21.4175 5.90082C21.3159 5.87714 21.2139 5.85449 21.1115 5.83289C20.9091 5.7902 20.7053 5.7516 20.5 5.71716M9.2028 8.35898C5.44435 11.0848 3 15.5118 3 20.5098C3 28.5058 9.25648 35.0405 17.1411 35.4856M9.2028 8.35898C10.4685 9.07591 13 11.0098 13 13.0098C13 15.5098 10.5 18.0098 11 19.0098C11.5 20.0098 16.5 19.5098 16.5 22.0098C16.5 24.5098 11.5 25.0098 11.5 28.5098C11.5 31.3098 12.8333 33.6764 13.5 34.5098M17.1411 35.4856C17.4254 35.5016 17.7117 35.5098 18 35.5098C20.2767 35.5098 22.435 35.0025 24.3679 34.0949C28.637 32.0904 31.807 28.1328 32.727 23.3732M17.1411 35.4856C17.2607 33.1603 18.4 28.1098 22 26.5098C22.7987 26.1548 23.5793 25.9901 24.3233 25.9634M30 28.5098C29.6245 28.0806 29.0349 27.5548 28.2879 27.0923" stroke="#00205B" stroke-width="1.5" stroke-linecap="round"/>
<path d="M23 11.0093C23 10.2064 23.0806 9.75899 23.3711 8.1845M26.5 2.00925C26.5434 1.97785 26.4555 2.03892 26.5 2.00925ZM26.5 2.00925C24.7918 3.24498 23.7935 5.89491 23.3711 8.1845M26.5 2.00925L26.4408 8.6665M26.5 2.00925C27.795 3.04529 28.8665 4.70747 29.6448 6.50925M31 11.5093C30.8393 9.98298 30.3689 8.18569 29.6448 6.50925M26.5 14.0093L26.4668 11.0093M26.4668 11.0093L23.3711 8.1845M26.4668 11.0093L26.4408 8.6665M26.4408 8.6665L29.6448 6.50925" stroke="#2FC774" stroke-width="1.5" stroke-linecap="round"/>
<path d="M26.5 38.0098V30.0005M26.5 20.0098V25.5005M26.5 30.0005L23.5 28.0005M26.5 30.0005V25.5005M26.5 25.5005L29 24.0005" stroke="#00205B" stroke-width="1.5" stroke-linecap="round"/>
<path d="M26.0245 21.5098L26.1709 22.2453L26.7274 22.1346L26.7722 21.569L26.0245 21.5098ZM16.0245 10.5098L16.139 9.76855C15.9378 9.73748 15.7325 9.78956 15.5705 9.91283C15.4084 10.0361 15.3034 10.22 15.2797 10.4222L16.0245 10.5098ZM20.5 17.0098L21.0336 16.4827L20.5 17.0098ZM23.1301 19.3237L22.661 19.9089L23.1301 19.3237ZM23.1301 13.6367L23.6388 13.0856L23.1301 13.6367ZM20.334 16.8372L20.8809 16.324L20.334 16.8372ZM16.3235 15.5098L15.601 15.7111L16.3235 15.5098ZM26.0245 21.5098C26.4564 20.8966 26.4565 20.8966 26.4565 20.8966C26.4565 20.8966 26.4565 20.8966 26.4565 20.8966C26.4564 20.8966 26.4564 20.8966 26.4564 20.8966C26.4563 20.8965 26.4561 20.8963 26.4558 20.8961C26.4552 20.8958 26.4543 20.8951 26.4531 20.8943C26.4507 20.8926 26.447 20.8899 26.442 20.8864C26.432 20.8793 26.417 20.8687 26.3972 20.8546C26.3575 20.8264 26.2989 20.7845 26.2235 20.7303C26.0729 20.6219 25.8559 20.4645 25.5917 20.2693C25.0629 19.8786 24.3475 19.3383 23.5991 18.7384L22.661 19.9089C23.4292 20.5246 24.161 21.0773 24.7003 21.4757C24.9702 21.6751 25.1924 21.8363 25.3475 21.9479C25.4251 22.0037 25.4859 22.0472 25.5276 22.0768C25.5484 22.0916 25.5644 22.103 25.5754 22.1107C25.5808 22.1146 25.585 22.1176 25.5879 22.1196C25.5894 22.1206 25.5905 22.1214 25.5913 22.122C25.5917 22.1222 25.592 22.1225 25.5922 22.1226C25.5923 22.1227 25.5924 22.1228 25.5925 22.1228C25.5925 22.1228 25.5925 22.1229 25.5926 22.1229C25.5926 22.1229 25.5926 22.1229 26.0245 21.5098ZM23.5991 18.7384C22.6898 18.0097 21.7479 17.2059 21.0336 16.4827L19.9664 17.5368C20.7412 18.3212 21.7355 19.1672 22.661 19.9089L23.5991 18.7384ZM15.9101 11.251C18.7422 11.6883 21.0234 12.713 22.6214 14.1879L23.6388 13.0856C21.7717 11.3624 19.1909 10.2398 16.139 9.76855L15.9101 11.251ZM22.6214 14.1879C24.5222 15.9423 25.5194 18.3907 25.2769 21.4505L26.7722 21.569C27.0486 18.0808 25.8995 15.1722 23.6388 13.0856L22.6214 14.1879ZM23.8801 19.3237V13.6367H22.3801V19.3237H23.8801ZM21.0336 16.4827C20.9834 16.4319 20.9325 16.379 20.8809 16.324L19.7871 17.3504C19.8469 17.4141 19.9067 17.4763 19.9664 17.5368L21.0336 16.4827ZM20.8809 16.324C19.9603 15.343 18.915 13.8139 18.0837 12.4956C17.6722 11.8431 17.3205 11.2541 17.0717 10.8283C16.9474 10.6156 16.849 10.444 16.7819 10.3259C16.7483 10.2669 16.7226 10.2213 16.7055 10.1907C16.6969 10.1755 16.6904 10.1639 16.6862 10.1563C16.684 10.1525 16.6825 10.1497 16.6815 10.1479C16.681 10.147 16.6806 10.1463 16.6804 10.1459C16.6803 10.1457 16.6802 10.1456 16.6802 10.1455C16.6801 10.1455 16.6801 10.1455 16.6801 10.1455C16.6801 10.1455 16.6801 10.1455 16.0245 10.5098C15.3689 10.874 15.3689 10.8741 15.369 10.8741C15.369 10.8742 15.3691 10.8743 15.3691 10.8744C15.3692 10.8746 15.3694 10.8748 15.3695 10.8751C15.3699 10.8758 15.3704 10.8767 15.371 10.8778C15.3723 10.8801 15.3742 10.8834 15.3766 10.8878C15.3814 10.8964 15.3884 10.909 15.3976 10.9253C15.416 10.958 15.443 11.0059 15.4778 11.0672C15.5476 11.1899 15.649 11.3667 15.7766 11.5851C16.0317 12.0217 16.3923 12.6256 16.8149 13.2957C17.6516 14.6225 18.761 16.2571 19.7871 17.3504L20.8809 16.324ZM25.8782 20.7742C22.3166 21.4829 18.2781 19.729 17.0459 15.3084L15.601 15.7111C17.0733 20.9933 21.9524 23.0848 26.1709 22.2453L25.8782 20.7742ZM17.0459 15.3084C16.6811 13.9993 16.5535 12.434 16.7694 10.5973L15.2797 10.4222C15.0442 12.4251 15.1768 14.1893 15.601 15.7111L17.0459 15.3084ZM20.5697 16.1252L16.5591 14.7978L16.0878 16.2218L20.0983 17.5492L20.5697 16.1252Z" fill="#2FC774"/>
<path d="M26.5705 22.0348C26.5705 22.0348 28.03 21.192 29.6497 20.1178M26.5705 22.0348C26.6064 18.7507 27.916 16.1795 30.161 14.4539M26.5705 22.0348C30.3751 23.1554 34.9888 21.6414 36.7717 16.9312M37.5189 11.9784C34.5479 12.1664 32.0302 13.017 30.161 14.4539M37.5189 11.9784C37.5189 11.9784 34.7832 16.0018 32.658 17.8927M37.5189 11.9784C37.571 13.9107 37.2918 15.557 36.7717 16.9312M29.6497 20.1178C30.6295 19.468 31.6679 18.7335 32.4772 18.0497C32.5369 17.9992 32.5972 17.9468 32.658 17.8927M29.6497 20.1178L30.161 14.4539M32.658 17.8927L36.7717 16.9312" stroke="#2FC774" stroke-width="1.5" stroke-linecap="round" stroke-linejoin="round"/>
</svg>
