<svg width="40" height="40" viewBox="0 0 40 40" fill="none" xmlns="http://www.w3.org/2000/svg">
<path d="M16.2266 25.8642L24.4993 20.4551V25.8642L35.4084 20.4551V38.1824" stroke="#00205B" stroke-width="1.5" stroke-miterlimit="10" stroke-linecap="round" stroke-linejoin="round"/>
<path d="M21.3153 31.9095H19.679C19.2244 31.9095 18.9062 31.5459 18.9062 31.1368V29.8186C18.9062 29.3641 19.2699 29.0459 19.679 29.0459H21.3153C21.7699 29.0459 22.0881 29.4095 22.0881 29.8186V31.1368C22.1335 31.5459 21.7699 31.9095 21.3153 31.9095Z" stroke="#2FC774" stroke-width="1.5" stroke-miterlimit="10" stroke-linecap="round" stroke-linejoin="round"/>
<path d="M26.8153 31.9095H25.179C24.7244 31.9095 24.4062 31.5459 24.4062 31.1368V29.8186C24.4062 29.3641 24.7699 29.0459 25.179 29.0459H26.8153C27.2699 29.0459 27.5881 29.4095 27.5881 29.8186V31.1368C27.5881 31.5459 27.2244 31.9095 26.8153 31.9095Z" stroke="#2FC774" stroke-width="1.5" stroke-miterlimit="10" stroke-linecap="round" stroke-linejoin="round"/>
<path d="M32.2724 31.9095H30.636C30.1815 31.9095 29.8633 31.5459 29.8633 31.1368V29.8186C29.8633 29.3641 30.2269 29.0459 30.636 29.0459H32.2724C32.7269 29.0459 33.0451 29.4095 33.0451 29.8186V31.1368C33.0451 31.5459 32.7269 31.9095 32.2724 31.9095Z" stroke="#2FC774" stroke-width="1.5" stroke-miterlimit="10" stroke-linecap="round" stroke-linejoin="round"/>
<path d="M27.2266 21.8636L32.9993 19" stroke="#00205B" stroke-width="1.5" stroke-miterlimit="10" stroke-linecap="round" stroke-linejoin="round"/>
<path d="M18.3164 21.6816L21.2255 19.7725" stroke="#00205B" stroke-width="1.5" stroke-miterlimit="10" stroke-linecap="round" stroke-linejoin="round"/>
<path d="M5.67898 13.5459L4.90625 38.1823" stroke="#00205B" stroke-width="1.5" stroke-miterlimit="10" stroke-linecap="round" stroke-linejoin="round"/>
<path d="M11.3161 18.5459L11.1797 13.5459" stroke="#00205B" stroke-width="1.5" stroke-miterlimit="10" stroke-linecap="round" stroke-linejoin="round"/>
<path d="M10.2262 18.5459L9.58984 38.1823" stroke="#00205B" stroke-width="1.5" stroke-miterlimit="10" stroke-linecap="round" stroke-linejoin="round"/>
<path d="M16.6364 38.1823L16 18.5459" stroke="#00205B" stroke-width="1.5" stroke-miterlimit="10" stroke-linecap="round" stroke-linejoin="round"/>
<path d="M5.58984 16.5H6.95348" stroke="#00205B" stroke-width="1.5" stroke-miterlimit="10" stroke-linecap="round" stroke-linejoin="round"/>
<path d="M9.54297 11.4088C9.86115 11.1816 10.0884 10.8634 10.1793 10.4997C10.543 10.6816 10.9066 10.7725 11.3157 10.7725C12.3157 10.7725 13.1793 10.1816 13.6339 9.36337C14.4521 10.2725 15.6793 10.8634 16.9975 10.8634C19.4975 10.8634 21.543 8.81792 21.543 6.31792C21.543 5.36337 21.2702 4.49973 20.7702 3.77246" stroke="#00205B" stroke-width="1.5" stroke-miterlimit="10" stroke-linecap="round" stroke-linejoin="round"/>
<path d="M16.4964 1.81836C14.1783 1.81836 12.2692 3.54563 11.9964 5.81836C11.6328 5.63654 11.2692 5.54563 10.8146 5.54563C9.36009 5.54563 8.17827 6.72745 8.17827 8.182C8.17827 8.31836 8.17827 8.45472 8.22372 8.59109H8.17827C7.31463 8.59109 6.63281 9.27291 6.63281 10.1365C6.63281 10.5456 6.76918 10.8638 6.99645 11.1365" stroke="#00205B" stroke-width="1.5" stroke-miterlimit="10" stroke-linecap="round" stroke-linejoin="round"/>
<path d="M5.5 20.4092H6.81818" stroke="#00205B" stroke-width="1.5" stroke-miterlimit="10" stroke-linecap="round" stroke-linejoin="round"/>
<path d="M5.36328 24.3184H6.68146" stroke="#00205B" stroke-width="1.5" stroke-miterlimit="10" stroke-linecap="round" stroke-linejoin="round"/>
<path d="M5.22656 28.1816H6.54474" stroke="#00205B" stroke-width="1.5" stroke-miterlimit="10" stroke-linecap="round" stroke-linejoin="round"/>
<path d="M5.08984 32.0908H6.45348" stroke="#00205B" stroke-width="1.5" stroke-miterlimit="10" stroke-linecap="round" stroke-linejoin="round"/>
<path d="M10.1367 21.1816H11.5004" stroke="#00205B" stroke-width="1.5" stroke-miterlimit="10" stroke-linecap="round" stroke-linejoin="round"/>
<path d="M10 25.0908H11.3636" stroke="#00205B" stroke-width="1.5" stroke-miterlimit="10" stroke-linecap="round" stroke-linejoin="round"/>
<path d="M9.90625 29H11.2699" stroke="#00205B" stroke-width="1.5" stroke-miterlimit="10" stroke-linecap="round" stroke-linejoin="round"/>
<path d="M9.76953 32.9092H11.1332" stroke="#00205B" stroke-width="1.5" stroke-miterlimit="10" stroke-linecap="round" stroke-linejoin="round"/>
<path d="M4.54297 13.5459H12.3157" stroke="#00205B" stroke-width="1.5" stroke-miterlimit="10" stroke-linecap="round" stroke-linejoin="round"/>
<path d="M9.22656 18.5459H16.9993" stroke="#00205B" stroke-width="1.5" stroke-miterlimit="10" stroke-linecap="round" stroke-linejoin="round"/>
<path d="M1.81641 38.1816H37.8619" stroke="#00205B" stroke-width="1.5" stroke-miterlimit="10" stroke-linecap="round" stroke-linejoin="round"/>
<path d="M31.5419 11.0459H28.7237L29.5874 6.0459L23.6328 12.4095H26.451L25.5874 17.455L31.5419 11.0459Z" stroke="#2FC774" stroke-width="1.5" stroke-miterlimit="10" stroke-linecap="round" stroke-linejoin="round"/>
</svg>
