<svg width="32" height="32" viewBox="0 0 32 32" fill="none" xmlns="http://www.w3.org/2000/svg">
<g id="&#230;&#148;&#182;&#229;&#133;&#165;">
<rect width="32" height="32" rx="4" fill="#2FC774" fill-opacity="0.1"/>
<g id="Group 427320775">
<path id="Vector" d="M14.25 14.03C14.25 14.57 14.4 14.65 14.74 14.77L15.25 14.95V13.25H14.95C14.57 13.25 14.25 13.6 14.25 14.03Z" fill="#2FC774"/>
<path id="Vector_2" d="M16.75 18.7498H17.05C17.44 18.7498 17.75 18.3998 17.75 17.9698C17.75 17.4298 17.6 17.3498 17.26 17.2298L16.75 17.0498V18.7498Z" fill="#2FC774"/>
<path id="Subtract" fill-rule="evenodd" clip-rule="evenodd" d="M23.583 9.4835L21.8137 11.2527H23.9977C24.4077 11.2527 24.7477 11.5927 24.7477 12.0027C24.7477 12.4127 24.4077 12.7527 23.9977 12.7527H19.9977C19.8977 12.7527 19.8077 12.7327 19.7177 12.7027C19.5277 12.6227 19.3877 12.4727 19.3077 12.2927C19.2677 12.1927 19.2477 12.1027 19.2477 12.0027V8.00273C19.2477 7.59273 19.5877 7.25273 19.9977 7.25273C20.4077 7.25273 20.7477 7.59273 20.7477 8.00273V10.1884L22.5179 8.41821C20.7582 6.91927 18.489 6 16 6C10.48 6 6 10.48 6 16C6 21.52 10.48 26 16 26C21.52 26 26 21.52 26 16C26 13.5116 25.0812 11.243 23.583 9.4835ZM19.25 17.98C19.25 16.51 18.39 16.05 17.75 15.82L16.75 15.47V13.25H16.83C17.34 13.25 17.75 13.7 17.75 14.25C17.75 14.66 18.09 15 18.5 15C18.91 15 19.25 14.66 19.25 14.25C19.25 12.87 18.16 11.75 16.83 11.75H16.75V11.5C16.75 11.09 16.41 10.75 16 10.75C15.59 10.75 15.25 11.09 15.25 11.5V11.74H14.95C13.74 11.74 12.75 12.77 12.75 14.02C12.75 15.49 13.61 15.95 14.25 16.18L15.25 16.53V18.75H15.17C14.66 18.75 14.25 18.3 14.25 17.75C14.25 17.34 13.91 17 13.5 17C13.09 17 12.75 17.34 12.75 17.76C12.75 19.14 13.84 20.26 15.17 20.26H15.25V20.51C15.25 20.92 15.59 21.26 16 21.26C16.41 21.26 16.75 20.92 16.75 20.51V20.26H17.05C18.26 20.26 19.25 19.23 19.25 17.98Z" fill="#2FC774"/>
<path id="Subtract_2" fill-rule="evenodd" clip-rule="evenodd" d="M23.5846 9.48167L25.5305 7.53579C25.8246 7.24165 25.8246 6.76475 25.5305 6.47061C25.2364 6.17646 24.7595 6.17646 24.4653 6.47061L22.5195 8.41639C22.9006 8.74433 23.2568 9.1005 23.5846 9.48167Z" fill="#2FC774"/>
</g>
</g>
</svg>
