<?xml version="1.0" standalone="no"?><!DOCTYPE svg PUBLIC "-//W3C//DTD SVG 1.1//EN" "http://www.w3.org/Graphics/SVG/1.1/DTD/svg11.dtd"><svg t="1670224590455" class="icon" viewBox="0 0 1024 1024" version="1.1" xmlns="http://www.w3.org/2000/svg" p-id="8438" xmlns:xlink="http://www.w3.org/1999/xlink" width="128" height="128"><path d="M304.5 255.6c21.5 0 38.9-17.4 38.9-38.9V112.9c0-21.5-17.4-38.9-38.9-38.9s-38.9 17.4-38.9 38.9v103.8c0 21.4 17.4 38.9 38.9 38.9z m592.9-63h-88.9l1.9 24.1c0 50.1-40.6 90.8-90.8 90.8-50.1 0-90.8-40.6-90.8-90.8l1.9-24.1H393.4l1.9 24.1c0 50.1-40.6 90.8-90.8 90.8-50.1 0-90.8-40.6-90.8-90.8l1.9-24.1h-88.9c-21.5 0-29.6 8.2-29.6 29.6v688.9c0 21.5 17.4 38.9 38.9 38.9h752.2c21.5 0 38.9-17.4 38.9-38.9V222.2c-0.1-21.5-8.3-29.6-29.7-29.6z m-59.3 668.5H185.9v-461H838v461zM719.5 255.6c21.5 0 38.9-17.4 38.9-38.9V112.9c0-21.5-17.4-38.9-38.9-38.9s-38.9 17.4-38.9 38.9v103.8c0 21.4 17.4 38.9 38.9 38.9z" fill="#299192" p-id="8439"></path><path d="M430.4 777c-20.8 0-39.3-3.6-55.5-10.7-16.1-7.2-28.7-17.2-37.9-29.9s-13.9-27.2-13.9-43.7h72.3c0.1 5.1 1.6 9.7 4.6 13.7 3.1 4 7.3 7.1 12.7 9.3 5.3 2.2 11.4 3.4 18.3 3.4 6.6 0 12.5-1.2 17.6-3.5 5.1-2.4 9-5.7 11.9-10 2.8-4.2 4.2-9 4.1-14.5 0.1-5.3-1.5-10.1-4.9-14.2-3.3-4.1-7.9-7.4-13.8-9.7-5.9-2.3-12.8-3.5-20.5-3.5h-26.8v-49.6h26.8c7.1 0 13.4-1.2 18.8-3.5 5.5-2.3 9.8-5.6 12.8-9.7 3.1-4.1 4.6-8.9 4.5-14.2 0.1-5.2-1.2-9.7-3.7-13.7-2.6-4-6.2-7.1-10.8-9.3-4.6-2.2-9.9-3.4-15.9-3.4-6.5 0-12.4 1.2-17.6 3.5-5.1 2.3-9.1 5.6-12 9.7-2.9 4.1-4.4 8.9-4.5 14.2h-68.7c0.1-16.2 4.5-30.5 13.3-42.9 8.9-12.4 21-22.1 36.4-29.2 15.4-7.1 33.1-10.6 53.1-10.6 19.5 0 36.8 3.3 51.8 10 15.1 6.6 26.8 15.8 35.2 27.4 8.5 11.5 12.7 24.8 12.6 39.7 0.2 14.8-4.9 27-15.2 36.5-10.2 9.5-23.2 15.1-39 16.8v2.1c21.3 2.3 37.4 8.9 48.1 19.7 10.8 10.7 16 24.1 15.9 40.3 0.1 15.5-4.6 29.3-13.9 41.2-9.3 12-22.2 21.4-38.9 28.2C471 773.6 452 777 430.4 777zM702 508.6v264.8h-71.8V574.8h-1.5l-57.8 34.6v-61l65.1-39.8h66z" fill="#00205B" p-id="8440"></path></svg>