<svg t="1713930567375" class="icon" viewBox="0 0 1024 1024" version="1.1" xmlns="http://www.w3.org/2000/svg" p-id="19644" width="200" height="200"><path d="M684.1 102H340.3C191 102 102 191 102 340.2v343.2C102 833 191 922 340.3 922h343.3C833 922 922 833 922 683.8V340.2C922.4 191 833.4 102 684.1 102zM332.9 764.2c0 16.8-13.9 30.8-30.8 30.8-16.8 0-30.8-13.9-30.8-30.8v-84.9c0-16.8 13.9-30.8 30.8-30.8 16.8 0 30.8 13.9 30.8 30.8v84.9z m210.1 0c0 16.8-13.9 30.8-30.8 30.8-16.8 0-30.8-13.9-30.8-30.8V594c0-16.8 13.9-30.8 30.8-30.8 16.8 0 30.8 13.9 30.8 30.8v170.2z m210 0c0 16.8-13.9 30.8-30.8 30.8s-30.8-13.9-30.8-30.8v-255c0-16.8 13.9-30.8 30.8-30.8s30.8 13.9 30.8 30.8v255z m0.4-384.6h-0.4c0 16.8-13.9 30.8-30.8 30.8s-30.8-13.9-30.8-30.8v-39.8C586.9 447.2 456 523.1 309.6 559.6c-2.5 0.8-4.9 0.8-7.4 0.8-13.9 0-26.3-9.4-29.9-23.4-4.1-16.4 5.7-33.2 22.6-37.3 138.2-34.4 261.3-107 358.9-209.5h-51.3c-16.8 0-30.8-13.9-30.8-30.8s13.9-30.8 30.8-30.8h120.2c1.6 0 2.9 0.8 4.5 0.8 2.1 0.4 4.1 0.4 6.2 1.2 2.1 0.8 3.7 2 5.7 3.3 1.2 0.8 2.5 1.2 3.7 2 0.4 0.4 0.4 0.8 0.8 0.8 1.6 1.6 2.9 3.3 4.1 4.9 1.2 1.6 2.5 2.9 2.9 4.5 0.8 1.6 0.8 3.3 1.2 5.3 0.4 2.1 1.2 4.1 1.2 6.6 0 0.4 0.4 0.8 0.4 1.2v120.4z" p-id="19645" fill="#FF5454"></path></svg>