<svg width="40" height="40" viewBox="0 0 40 40" fill="none" xmlns="http://www.w3.org/2000/svg">
<path d="M36.1665 16.8291L32.6211 31.3746" stroke="#00205B" stroke-width="1.5" stroke-miterlimit="10" stroke-linecap="round" stroke-linejoin="round"/>
<path d="M7.39311 31.3746L3.84766 16.8291" stroke="#00205B" stroke-width="1.5" stroke-miterlimit="10" stroke-linecap="round" stroke-linejoin="round"/>
<path d="M11.4851 31.3746L8.75781 16.8291" stroke="#00205B" stroke-width="1.5" stroke-miterlimit="10" stroke-linecap="round" stroke-linejoin="round"/>
<path d="M13.712 31.3746L11.1211 16.8291" stroke="#00205B" stroke-width="1.5" stroke-miterlimit="10" stroke-linecap="round" stroke-linejoin="round"/>
<path d="M28.668 31.3746L31.3952 16.8291" stroke="#00205B" stroke-width="1.5" stroke-miterlimit="10" stroke-linecap="round" stroke-linejoin="round"/>
<path d="M26.4375 31.3746L28.983 16.8291" stroke="#00205B" stroke-width="1.5" stroke-miterlimit="10" stroke-linecap="round" stroke-linejoin="round"/>
<path d="M32.9375 21.7842H34.7524" stroke="#00205B" stroke-width="1.5" stroke-miterlimit="10" stroke-linecap="round" stroke-linejoin="round"/>
<path d="M14.625 21.7842H27.998" stroke="#00205B" stroke-width="1.5" stroke-miterlimit="10" stroke-linecap="round" stroke-linejoin="round"/>
<path d="M5.34766 21.7842H7.21168" stroke="#00205B" stroke-width="1.5" stroke-miterlimit="10" stroke-linecap="round" stroke-linejoin="round"/>
<path d="M31.75 26.875H33.4815" stroke="#00205B" stroke-width="1.5" stroke-miterlimit="10" stroke-linecap="round" stroke-linejoin="round"/>
<path d="M15.6914 26.875H27.0756" stroke="#00205B" stroke-width="1.5" stroke-miterlimit="10" stroke-linecap="round" stroke-linejoin="round"/>
<path d="M6.53125 26.875H8.37473" stroke="#00205B" stroke-width="1.5" stroke-miterlimit="10" stroke-linecap="round" stroke-linejoin="round"/>
<path d="M24.7138 33.6934H15.3047" stroke="#00205B" stroke-width="1.5" stroke-miterlimit="10" stroke-linecap="round" stroke-linejoin="round"/>
<path d="M8.43875 33.6926H7.16602C6.84784 33.6926 6.62057 33.5108 6.52966 33.1926L6.07512 31.829C6.02966 31.6017 6.16602 31.4199 6.3933 31.4199H33.5751C33.8024 31.4199 33.9388 31.6472 33.8933 31.829L33.5297 33.1926C33.4388 33.4654 33.2115 33.6926 32.8933 33.6926H31.6206" stroke="#00205B" stroke-width="1.5" stroke-miterlimit="10" stroke-linecap="round" stroke-linejoin="round"/>
<path d="M16.121 16.8288H3.12098C2.71189 16.8288 2.34826 16.5561 2.25735 16.1925L1.84826 14.9652C1.71189 14.5561 2.03007 14.1016 2.48462 14.1016H37.5301C37.9846 14.1016 38.3028 14.5561 38.1664 14.9652L37.7574 16.1925C37.621 16.5561 37.3028 16.8288 36.8937 16.8288H26.8937" stroke="#00205B" stroke-width="1.5" stroke-miterlimit="10" stroke-linecap="round" stroke-linejoin="round"/>
<path d="M11.8018 36.6476C12.6805 36.6476 13.3928 35.9354 13.3928 35.0567C13.3928 34.1781 12.6805 33.4658 11.8018 33.4658C10.9232 33.4658 10.2109 34.1781 10.2109 35.0567C10.2109 35.9354 10.9232 36.6476 11.8018 36.6476Z" stroke="#00205B" stroke-width="1.5" stroke-miterlimit="10" stroke-linecap="round" stroke-linejoin="round"/>
<path d="M28.1222 36.6476C29.0008 36.6476 29.7131 35.9354 29.7131 35.0567C29.7131 34.1781 29.0008 33.4658 28.1222 33.4658C27.2435 33.4658 26.5312 34.1781 26.5312 35.0567C26.5312 35.9354 27.2435 36.6476 28.1222 36.6476Z" stroke="#00205B" stroke-width="1.5" stroke-miterlimit="10" stroke-linecap="round" stroke-linejoin="round"/>
<path d="M6.9375 11.9199L7.75568 10.4199C7.9375 10.1017 8.21023 9.87444 8.52841 9.73808L11.7102 8.60171C12.0739 8.46535 12.483 8.55626 12.7557 8.82898L15.8011 11.8744" stroke="#2FC774" stroke-width="1.5" stroke-miterlimit="10" stroke-linecap="round" stroke-linejoin="round"/>
<path d="M17.168 9.78397L20.3498 8.64761C20.7134 8.51125 21.1225 8.60216 21.3952 8.87488L24.4407 11.9203" stroke="#2FC774" stroke-width="1.5" stroke-miterlimit="10" stroke-linecap="round" stroke-linejoin="round"/>
<path d="M25.8008 9.7841L29.2099 8.60229C29.4371 8.51138 29.7099 8.55683 29.9371 8.64774L31.8008 9.60229C32.119 9.78411 32.3462 10.0568 32.4826 10.375L33.0281 11.9659" stroke="#2FC774" stroke-width="1.5" stroke-miterlimit="10" stroke-linecap="round" stroke-linejoin="round"/>
<path d="M20.119 6.37523L19.3462 4.96615C19.2099 4.69342 18.9371 4.46614 18.619 4.32978L15.619 3.28433C15.3008 3.14797 14.8917 3.23887 14.6644 3.5116L11.8008 6.37523" stroke="#2FC774" stroke-width="1.5" stroke-miterlimit="10" stroke-linecap="round" stroke-linejoin="round"/>
<path d="M27.3917 6.78391L26.4371 4.96573C26.3008 4.693 26.0281 4.46573 25.7099 4.32936L23.619 3.28391C23.3462 3.14755 23.0281 3.14755 22.7553 3.28391L21.3008 3.92027" stroke="#2FC774" stroke-width="1.5" stroke-miterlimit="10" stroke-linecap="round" stroke-linejoin="round"/>
<path d="M22.3477 16.8291H22.4386" stroke="#00205B" stroke-width="1.5" stroke-miterlimit="10" stroke-linecap="round" stroke-linejoin="round"/>
<path d="M4.71094 37.1025H35.3018" stroke="#00205B" stroke-width="1.5" stroke-miterlimit="10" stroke-linecap="round" stroke-linejoin="round"/>
<path d="M18.2578 16.8291H20.1669" stroke="#00205B" stroke-width="1.5" stroke-miterlimit="10" stroke-linecap="round" stroke-linejoin="round"/>
</svg>
