<svg t="1713930510021" class="icon" viewBox="0 0 1024 1024" version="1.1" xmlns="http://www.w3.org/2000/svg" p-id="19315" width="200" height="200"><path d="M513.7 78.7c-2 1.4-3.8 2-5.1 2-4.1-2-7.9-4.4-11.3-7.2-3.4-2-6.7-4.3-9.7-6.7-3.1-2.4-6-5.3-8.7-8.7-5.5-5.5-13.7-9-24.6-10.8-10.9-1.7-20.8 0.2-29.7 5.6-11.6 7.7-19.8 14-24.6 19.1-4.8 5.1-11.9 8.7-21.5 10.8-5.5 1.4-11.4 1-17.9-1-6.5-2-13.1-4.1-20-6.1-6.8-2-13.3-3.4-19.5-4.1-6.1-0.7-11.6 0.7-16.4 4.1-9.6 7.5-12.6 16.6-9.2 27.1 3.4 10.6 9.6 18.9 18.4 25.1 8.2 6.1 16.6 13.1 25.1 21s16.2 16.9 23 27.1c3.4 5.5 7.5 11.6 12.3 18.4 4.8 6.8 9.2 13.7 13.3 20.5 4.8 7.5 9.6 15.4 14.3 23.6h212c4.8-6.8 9.2-14 13.3-21.5 3.4-6.1 7.2-12.3 11.3-18.4 4.1-6.1 7.9-11.6 11.3-16.4 6.8-9.6 13.7-18.6 20.5-27.1 6.8-8.5 16.7-16.9 29.7-25.1 5.5-3.4 10.1-7.9 13.8-13.3 3.8-5.5 6.1-10.9 7.2-16.4 1-5.5 0.3-10.8-2-15.9-2.4-5.1-7-9-13.8-11.8-6.1-2-11.4-2.7-15.9-2-4.4 0.7-8.9 1.9-13.3 3.6-4.4 1.7-9 3.6-13.8 5.6-4.8 2-10.6 3.1-17.4 3.1-6.8 0-12.5-1.2-16.9-3.6-4.4-2.4-8.5-5.3-12.3-8.7-3.8-3.4-7.7-7-11.8-10.8-4.1-3.8-9.6-6.7-16.4-8.7-13.7-5.5-24.6-6.5-32.8-3.1-8.2 3.4-16.4 8.9-24.6 16.4-6.7 6.8-12.2 11.6-16.3 14.3z" p-id="19316" fill="#FAC515"></path><path d="M868.5 615.8c-5.1-33.8-14.2-63.7-27.1-89.6-13-25.9-28.2-48.6-45.6-68.1s-34.3-36.4-50.7-50.7c-19.8-16.4-37.2-31.9-52.2-46.6-15-14.7-27.6-27.8-37.9-39.4-12.3-13-22.5-24.9-30.7-35.8H393.9c-8.9 11.6-19.1 23.9-30.7 36.9-9.6 11.6-21.5 24.4-35.8 38.4-14.3 14-30.4 28.8-48.1 44.5-20.5 17.8-39.4 37.9-56.8 60.4s-32 47.2-43.6 74.2c-11.6 27-19.6 55.8-24.1 86.5-4.4 30.7-3.6 62.8 2.6 96.3 5.5 30 16.7 60.2 33.8 90.6 17.1 30.4 40.1 57.9 69.1 82.4 29 24.6 64.3 44.5 106 59.9 41.6 15.4 89.4 23 143.4 23 52.6 0 99.5-6.7 140.8-20 41.3-13.3 77-31.2 107-53.8 30-22.5 54.1-49 72.2-79.4 18.1-30.4 30.2-62.6 36.4-96.8 6.7-41.4 7.5-79.1 2.4-112.9zM513 810.8c0-94.3-77.2-171.5-171.5-171.5 94.3 0 171.5-77.2 171.5-171.5 0 94.3 77.2 171.5 171.5 171.5-94.4 0-171.5 77.2-171.5 171.5z" p-id="19317" fill="#FAC515"></path></svg>