<?xml version="1.0" standalone="no"?><!DOCTYPE svg PUBLIC "-//W3C//DTD SVG 1.1//EN" "http://www.w3.org/Graphics/SVG/1.1/DTD/svg11.dtd"><svg t="1670224737029" class="icon" viewBox="0 0 1024 1024" version="1.1" xmlns="http://www.w3.org/2000/svg" p-id="8743" xmlns:xlink="http://www.w3.org/1999/xlink" width="128" height="128"><path d="M352.2 750.7C219.9 745.9 98.6 694 80.6 636.8-6.5 360.2 271.7 72.7 405.2 67.1c188.2-7.9 348.6 373 284.3 512.7-44.1 95.7-131 144.7-225.8 162.8-4.2-98.2-8.1-183.3-10-206.2-0.4-5.3 99.7-142.4 99.7-142.4L439 450l-29.2-103s-29.9 154-41.7 249.9l-145.5-28.4s66.5 97.5 133.8 124.4l-4.2 57.8z" fill="#48ABA8" p-id="8744"></path><path d="M413.3 419c-5.3 52.3-12.8 154.8-16.1 181.6l-4.4 35.6L277 600.5c13 11.5 26.3 22.7 39.2 32.7 20.3 15.6 37.8 26.7 50.6 31.9l20.3 8.1L366.7 960h75.4c-1.4-34-2.9-71.1-4.4-108.8-5.7-137.9-11.9-282.1-14.4-312.5-0.6-6.9 1.5-12.3 1.8-13.1v-0.1c0.6-1.7 1.3-3.1 1.7-3.8 0.8-1.6 1.7-3.1 2.4-4.2 1.4-2.3 3.3-5.2 5.4-8.2 4.2-6.2 10.1-14.5 17-24.1 3.6-5 7.5-10.3 11.6-16l-49.7 35.2V419z" fill="#00205B" p-id="8745"></path><path d="M545.5 745.7c12.7 37.8 93 71.9 180.4 75l2.7-38.4c-44.7-17.9-89-82.7-89-82.7l96.8 18.9c7.8-63.8 27.7-166.3 27.7-166.3l19.4 68.5 76.2-37.3s-66.6 91.2-66.3 94.7c1.2 15.3 3.8 71.8 6.6 137.2 63.1-12 120.9-44.6 150.2-108.3 42.8-92.9-64-346.3-189.1-341-17.1 0.7-37.7 8.4-59.5 21.6 25.1 82.3 30.7 162.5 7.8 212.2-34.1 74.4-94.2 120.6-163.9 145.9z" fill="#48ABA8" p-id="8746"></path><path d="M766.8 600c-3.5 34.8-8.5 103-10.7 120.8l-2.9 23.7-77.2-23.7c8.6 7.7 17.5 15.1 26.1 21.7 13.5 10.4 25.2 17.8 33.7 21.2l13.6 5.4L735.8 960H786c-0.9-22.6-1.9-47.3-2.9-72.4-3.8-91.7-8-187.7-9.6-207.9-0.4-4.6 1-8.2 1.2-8.7 0.4-1.1 0.9-2 1.1-2.5 0.5-1.1 1.1-2.1 1.6-2.8 1-1.6 2.2-3.5 3.6-5.5 2.8-4.1 6.7-9.6 11.3-16 2.4-3.3 5-6.9 7.7-10.6L766.8 657v-57z" fill="#00205B" p-id="8747"></path></svg>