<?xml version="1.0" standalone="no"?><!DOCTYPE svg PUBLIC "-//W3C//DTD SVG 1.1//EN" "http://www.w3.org/Graphics/SVG/1.1/DTD/svg11.dtd"><svg t="1670225015918" class="icon" viewBox="0 0 1024 1024" version="1.1" xmlns="http://www.w3.org/2000/svg" p-id="9049" xmlns:xlink="http://www.w3.org/1999/xlink" width="128" height="128"><path d="M862 97c-22.1 0-40 17.9-40 40v650c0 22.1 17.9 40 40 40h58c22.1 0 40-17.9 40-40V137c0-22.1-17.9-40-40-40h-58zM569 371c0-22.1 17.9-40 40-40h58c22.1 0 40 17.9 40 40v416c0 22.1-17.9 40-40 40h-58c-22.1 0-40-17.9-40-40V371zM357 360c-22.1 0-40 17.9-40 40v387c0 22.1 17.9 40 40 40h58c22.1 0 40-17.9 40-40V400c0-22.1-17.9-40-40-40h-58zM104 471c-22.1 0-40 17.9-40 40v276c0 22.1 17.9 40 40 40h58c22.1 0 40-17.9 40-40V511c0-22.1-17.9-40-40-40h-58z" fill="#48ABA8" p-id="9050"></path><path d="M64 97h50.1l32.3 67.3h1.3L180.1 97h50.1l-60.8 113.6v52.1h-44.6v-52.1L64 97zM387 264.7c-7.9 0-14.9-1.3-21-3.9-6-2.6-10.8-6.6-14.2-12-3.4-5.3-5.2-12.1-5.2-20.4 0-6.8 1.2-12.6 3.5-17.4 2.3-4.9 5.6-8.8 9.7-11.9 4.1-3.1 9-5.4 14.5-7 5.6-1.6 11.5-2.7 17.9-3.2 7-0.5 12.5-1.2 16.7-1.9 4.3-0.8 7.3-1.9 9.2-3.3 1.9-1.5 2.8-3.4 2.8-5.7v-0.3c0-3.2-1.2-5.7-3.7-7.4-2.5-1.7-5.7-2.6-9.5-2.6-4.3 0-7.7 0.9-10.4 2.8-2.6 1.8-4.2 4.7-4.8 8.5h-41.1c0.5-7.6 2.9-14.5 7.2-20.9 4.3-6.4 10.6-11.5 18.8-15.4 8.2-3.9 18.5-5.8 30.9-5.8 8.9 0 16.9 1.1 23.9 3.2 7.1 2.1 13.1 4.9 18 8.7 5 3.7 8.7 8 11.3 12.9 2.6 4.9 4 10.3 4 16v85.1h-41.7v-17.5h-1c-2.5 4.6-5.5 8.4-9.1 11.2-3.5 2.9-7.5 4.9-12 6.2-4.3 1.3-9.3 2-14.7 2z m14.6-28.2c3.4 0 6.6-0.7 9.5-2.1 3-1.4 5.5-3.4 7.4-6.1 1.9-2.6 2.8-5.9 2.8-9.6v-10.4c-1.2 0.5-2.5 0.9-3.8 1.4-1.3 0.4-2.7 0.8-4.2 1.2-1.5 0.4-3 0.7-4.7 1.1-1.6 0.3-3.3 0.6-5.1 0.9-3.4 0.5-6.3 1.4-8.5 2.7-2.2 1.2-3.8 2.7-4.9 4.5-1 1.7-1.5 3.7-1.5 5.8 0 3.5 1.2 6.1 3.6 7.9 2.5 1.8 5.6 2.7 9.4 2.7zM486.9 262.7V138.4h43.3V162h1.3c2.3-8.7 5.8-15.1 10.8-19.2 5-4 10.8-6.1 17.4-6.1 1.9 0 3.9 0.2 5.7 0.5 1.9 0.3 3.8 0.7 5.6 1.2v38.1c-2.2-0.8-4.9-1.3-8.2-1.7-3.2-0.4-6-0.6-8.3-0.6-4.4 0-8.3 1-11.8 3-3.4 1.9-6.2 4.7-8.2 8.3-2 3.5-3 7.6-3 12.4v64.7h-44.6zM64 897c0-16.6 13.4-30 30-30h836c16.6 0 30 13.4 30 30s-13.4 30-30 30H94c-16.6 0-30-13.4-30-30z" fill="#00205B" p-id="9051"></path><path d="M239.2 257.4c9.6 5.1 21 7.6 34.3 7.6 11.5 0 21.5-1.7 30.1-5.2 8.6-3.5 15.5-8.4 20.8-14.7 5.2-6.4 8.5-13.9 9.9-22.5h-40.7c-0.9 2.3-2.2 4.3-4 6-1.8 1.6-4 2.9-6.6 3.7-2.5 0.9-5.3 1.3-8.4 1.3-4.4 0-8.2-0.9-11.3-2.7-3.1-1.8-5.5-4.2-7.2-7.4-1.7-3.1-2.5-6.7-2.5-10.7v-1.9h80.8v-10.4c0-9.9-1.5-18.7-4.4-26.6-2.9-7.9-7.1-14.6-12.4-20.1-5.4-5.6-11.9-9.8-19.5-12.7-7.6-2.9-16.1-4.4-25.5-4.4-12.8 0-24 2.7-33.4 8-9.4 5.3-16.7 12.8-21.9 22.4-5.2 9.6-7.8 20.8-7.8 33.7 0 13.4 2.6 24.9 7.7 34.5 5.1 9.6 12.4 17 22 22.1z m14.2-71.1h39.8c-0.1-3.6-1-6.7-2.7-9.4-1.7-2.8-4.1-4.9-7-6.4-2.9-1.6-6.2-2.3-9.9-2.3-3.6 0-6.9 0.8-9.9 2.3-3 1.5-5.4 3.6-7.3 6.3-2 2.8-2.9 5.9-3 9.5z m0 0h-30.1v24.6h30.1v-24.6z" fill="#00205B" p-id="9052"></path><path d="M223.3 186.3v24.6h30.1v-24.6h-30.1z" fill="#00205B" p-id="9053"></path></svg>