<?xml version="1.0" standalone="no"?><!DOCTYPE svg PUBLIC "-//W3C//DTD SVG 1.1//EN" "http://www.w3.org/Graphics/SVG/1.1/DTD/svg11.dtd"><svg t="1670225036435" class="icon" viewBox="0 0 1024 1024" version="1.1" xmlns="http://www.w3.org/2000/svg" p-id="9202" xmlns:xlink="http://www.w3.org/1999/xlink" width="128" height="128"><path d="M761.6 149.2c-11.8-8-25.8-12.2-40-12.2-19 0-37.2 7.5-50.6 20.9-13.4 13.4-21 31.5-21 50.4h47.7c0-3.9 1-7.8 2.8-11.3 1.9-3.5 4.6-6.4 7.9-8.6 3.3-2.2 7.1-3.5 11-3.8s7.9 0.3 11.5 1.8c3.6 1.5 6.8 4 9.3 7 2.5 3.1 4.1 6.7 4.8 10.6 0.7 3.9 0.5 7.8-0.8 11.6-1.2 3.7-3.3 7.1-6.2 9.8L650 310v41h143.1v-47.6h-67.5l45.5-43.7c10.3-9.9 17.4-22.6 20.4-36.5 3-13.9 1.7-28.4-3.6-41.6-5.3-13.1-14.5-24.4-26.3-32.4zM864.6 232.1V137h-47.7v142.7h95.4V351H960V137h-47.7v95.1h-47.7z" fill="#00205B" p-id="9203"></path><path d="M895.5 626.1C846.4 791.4 693.3 912 512 912c-220.9 0-400-179.1-400-400s179.1-400 400-400c36.7 0 72.3 5 106.1 14.2l-24.9 90.7c-25.8-7.1-53.1-10.9-81.2-10.9-169 0-306 137-306 306s137 306 306 306c140.8 0 259.4-95.1 295.1-224.6L733 566l199.5-191.5L960 650l-64.5-23.9z" fill="#299192" p-id="9204"></path><path d="M653.1 458.9H533.3L558.2 302 371 564.4h119.8l-24.9 156.9 187.2-262.4z" fill="#299192" p-id="9205"></path></svg>